<svg xmlns="http://www.w3.org/2000/svg" xmlns:xlink="http://www.w3.org/1999/xlink" version="1.1" x="0px" y="0px" viewBox="0 0 1920 1080" enable-background="new 0 0 1920 1080" xml:space="preserve">
<g xmlns="http://www.w3.org/2000/svg" id="Background">
	<path opacity="0.11" fill="#2A94F4" d="M1237.882,1054.65H751.948c-101.837,0-197.892-47.32-259.953-128.061l0,0   c-68.095-88.592-86.385-205.765-48.527-310.895l88.557-245.921c36.562-101.532,120.745-178.571,225.113-206.01l250.909-65.965   c119.339-31.375,246.187,6.91,328.241,99.069l194.667,218.64c90.286,101.405,108.731,247.967,46.385,368.58l-48.2,93.247   C1472.845,986.246,1360.485,1054.65,1237.882,1054.65z"/>
	<g>
		<path opacity="0.2" fill="#2A94F4" d="M615.197,1017.69c0,32.446,176.072,58.771,393.288,58.771    c217.186,0,393.258-26.326,393.258-58.771c0-32.464-176.072-58.786-393.258-58.786    C791.269,958.904,615.197,985.226,615.197,1017.69z"/>
	</g>
</g>
<g xmlns="http://www.w3.org/2000/svg" id="Character">
	<g>
		<g>
			<g>
				<path fill="#FCD2B1" d="M871.991,227.036l4.705-21.605c0,0,22.521-5.723,24.173-29.481c1.65-23.76-44.013-33.179-50.199-19.894      c-2.522,5.416-4.689,17.09-6.371,29.02c-2.445,17.335-3.866,35.209-3.866,35.209L871.991,227.036z"/>
				<path fill="#FFBE55" d="M821.964,204.533c0,0,18.656-8.607,35.047-1.102c6.431,2.944,21.371,16.276,21.371,16.276      s-9.639,168.302-13.431,182.137c1.01,0.345,1.97,0.705,2.998,1.096c39.676,15.837,98.349,51.311,124.214,66.139      c12.489,7.165,7.549,19.861,15.274,31.371c5.256,7.853,9.15,16.485,11.402,25.779c3.524,14.655,2.766,29.847-10.031,39.082      c-4.788,3.474-10.428,5.281-16.067,5.492c-6.263,0.276-12.618-1.45-17.898-4.894c-35.732-23.509-135.186-86.002-154.227-103.734      c-3.331-3.118-6.023-6.416-8.089-9.78c-0.81-1.076-1.535-2.239-2.312-3.549C791.102,414.633,821.964,204.533,821.964,204.533z"/>
				<g>
					<path fill="#0B4870" d="M1047.147,1017.641c0,0,76.569,3.304,134.378-48.475c46.254-41.431,80.489-110.701,90.253-141.005       c9.764-30.305,13.956-90.794-0.666-100.897c-14.623-10.104-279.39,241.902-279.39,241.902L1047.147,1017.641z"/>
					<path fill="#0E538C" d="M704.624,853.847c0,0,31.9-36.098,118.029-35.982c67.065,0.09,287.097,60.375,287.097,60.375       l-95.699,102.313L704.624,853.847z"/>
					<g>
						<polygon fill="#FCD2B1" points="1104.926,999.693 1060.266,980.554 1045.014,1009.263 1065.23,1026.019 1099.343,1026.019               "/>
						<path fill="#0E538C" d="M1065.23,1026.019c0,0,14.974,1.862,26.139-11.434c11.165-13.296,4.785-18.879,11.962-19.677        c7.177-0.797,38.28,13.557,69.382,10.368s40.672-7.936,42.267,3.608c1.595,11.545-2.49,54.425-39.972,52.83        C1137.525,1060.119,1065.23,1026.019,1065.23,1026.019z"/>
					</g>
					<path fill="#0B4870" d="M822.653,868.65c48.738,29.703,250.012,97.245,250.012,97.245s7.509,51.789-36.006,67.234       c0,0-242.716-68.481-300.135-94.82c-57.42-26.339-39.875-72.404-31.9-84.461C712.599,841.79,762.044,831.711,822.653,868.65z"/>
				</g>
				<path fill="#FFBE55" d="M1160.279,727.455c-7.873,20.429-9.756,42.725-4.988,64.144c9.445,42.517-1.304,45.369-1.304,45.369      s-51.138,35.498-101.061,40.81c-44.704,4.756-123.186-16.943-122.37-54.865c0,0,34.168-56.848,29.789-152.286      c-4.522-97.909,18.774-120.371,40.226-148.161c31.727-41.101-93.384-68.709,140.348-40.151      c51.063,6.239,74.749,20.249,74.343,57.301c-0.133,12.314-10.309,32.102-13.571,50.451      C1193.422,636.694,1173.682,692.668,1160.279,727.455z"/>
				<g>
					<g>
						<path fill="#1282D6" d="M1134.046,678.562c-19.138,51.043-76.139,84.93-130.124,77.379        c-20.147-2.833-39.565-10.834-55.821-23.078c-19.746-14.858-34.519-36.063-42.13-59.554        c-3.125-9.593-5.046-19.564-5.63-29.655c-1.167-20.257,2.797-39.164,10.542-55.882c14.165-30.689,41.048-54.058,72.345-65.086        c32.89-11.575,70.655-9.52,103.654,12.025c27.479,17.947,45.9,47.918,52.028,80.066c0,0,0,0,0,0.012        C1142.971,636.042,1141.657,658.244,1134.046,678.562z"/>
						<path fill="#9DDA9C" d="M1012.713,665.236c-4.669,2.566-10.323,3.368-14.311,6.882c-11.66,10.274,0.62,31.893-8.766,44.258        c-4.742,6.262-14.189,7.782-21.339,4.499c-7.137-3.283-11.928-10.505-13.691-18.165c-1.958-8.499-1.289-18.907-8.317-24.075        c-3.66-2.687-8.45-3.088-12.973-3.38c-6.785-0.45-13.581-0.888-20.366-1.338c-2.298-0.158-4.657-0.316-6.979-0.608        c-3.125-9.593-5.046-19.564-5.63-29.655c-1.167-20.257,2.797-39.164,10.542-55.882c3.587-2.03,7.611-3.125,11.721-2.724        c7.186,0.693,13.229,5.63,20.172,7.587c12.828,3.611,28.829-2.699,38.629,6.323c7.113,6.554,6.724,17.606,7.162,27.26        c0.45,9.666,4.17,21.315,13.691,23.029c5.338,0.973,12.086-1.289,15.478,2.955        C1021.066,656.348,1017.37,662.67,1012.713,665.236z"/>
						<path fill="#9DDA9C" d="M1138.91,614.776c0,0,0,0,0,0.012c-1.459,3.648-3.417,7.113-5.885,10.286        c-4.851,6.213-13.788,11.174-20.318,6.785c-9.423-6.323-3.429-24.476-13.363-29.972c-10.809-5.994-22.688,11.952-34.531,8.414        c-11.356-3.404-10.432-22.457-21.363-27.053c-7.538-3.173-15.588,2.529-22.141,7.405c-6.566,4.876-16.062,9.18-22.299,3.903        c-5.265-4.45-4.353-12.791-1.958-19.247c2.395-6.456,5.885-13.156,4.28-19.856c-2.432-10.092-15.162-14.895-18.032-24.865        c-0.754-2.614-0.705-5.301-0.073-7.903c32.89-11.575,70.655-9.52,103.654,12.025        C1114.361,552.657,1132.781,582.628,1138.91,614.776z"/>
						<path fill="#9DDA9C" d="M1073.691,705.425c5.487-7.23,15.449-8.941,23.433-13.258c7.049-3.812,13.109-10.715,13.202-18.728        c0.093-8.013-8.013-15.868-15.636-13.397c-4.242,1.375-7.16,5.278-11.127,7.313c-6.627,3.4-14.572,1.029-21.838-0.607        c-7.266-1.636-16.193-1.895-20.726,4.016c-7.398,9.651-1.766,23.868-9.759,34.976c-7.18,9.978-16.834,18.245-6.123,30.129        c8.023,8.902,23.672,9.709,33.05,2.798C1069.622,730.227,1065.857,715.748,1073.691,705.425z"/>
					</g>
				</g>
				<g>
					<g>
						<path fill="#FCD2B1" d="M1105.026,438.993c-1.342-4.086-6.272-5.727-9.877-3.382c-12.498,8.128-23.959,13.819-42.223,13.819        c-3.764,0-5.407-0.612-6.612-1.471c-2.866-2.045-6.838-1.67-9.051,1.068c-0.601,0.743-0.792,1.315,0.297,1.548        c6.459,1.377,11.148,6.829,11.522,13.381l1.44,26.839c0.047,0.868,0.264,1.718,0.639,2.503l7.181,15.001        c1.723,3.599,6.215,4.866,9.565,2.697l12.842-8.314l24.67-15.99c2.007-1.301,3.156-3.584,3.005-5.971l-2.439-38.493        c-0.049-0.774-0.252-1.527-0.57-2.234C1105.289,439.718,1105.153,439.381,1105.026,438.993z"/>
					</g>
				</g>
				<g>
					<path fill="#0B4870" d="M994.274,354.773c-0.69-0.055-0.308,3.866-5.794,10.216c-5.486,6.351-5.926,19.165-5.76,18.751       c0.165-0.414-10.605-29.809-7.518-37.011c3.086-7.201,9.435-9.025,11.051-6.676       C987.869,342.401,994.274,354.773,994.274,354.773z"/>
					<path fill="#FFE3CA" d="M1116.981,391.424c0.671,6.88,0.833,13.057,0.141,17.549c-0.076,0.594-0.211,1.246-0.409,1.905       c-0.139,0.598-0.274,1.252-0.536,1.915c-6.373,19.94-36.974,48.373-58.141,50.936c-2.796,0.247-5.542,0.33-8.176,0.242       c-29.397-0.713-46.208-20.633-55.777-41.94c-0.324-0.772-0.644-1.49-0.963-2.21c-8.411-19.808-10.858-40.25-11.489-47.401       c-0.149-1.694-0.17-2.653-0.17-2.653c-1.588-7.814,0.05-13.937,0.978-16.474c0.306-0.883,0.522-1.328,0.522-1.328       s0.377-0.087,1.003-0.249c8.195-2.218,63.941-17.177,65.149-17.284c1.208-0.107,57.031,2.489,57.031,2.489       S1114.603,368.147,1116.981,391.424z"/>
					<path fill="#4C2E1E" d="M1067.596,363.279"/>
					<path fill="#0B4870" d="M958.384,325.442c0,0,1.808,42.606,71.809,25.565c45.057-10.969,55.523,13.678,57.26,32.636       c0.561,6.115,7.54,9.278,12.515,5.679c3.41-2.467,10.678-6.079,14.245,1.3c9.363,19.371-7.829,40.594-8.071,41.109       c0,0,13.667,9.578,19.909-30.132c0.879-5.59,1.924-73.942-11.935-93.089c-13.858-19.147-30.4-18.279-30.4-18.279       s-17.517-14.762-58.793-2.684c-14.494,4.241-26.566,5.26-36.13,4.797c-17.899-0.866-32.341,14.471-30.495,32.295       C958.326,324.906,958.355,325.173,958.384,325.442z"/>
				</g>
				<g>
					<polygon fill="#FCD2B1" points="930.556,970.909 975.8,953.194 990.135,982.373 969.398,998.479 935.302,997.398      "/>
					<path fill="#0E538C" d="M969.398,998.479c0,0-15.026,1.387-25.764-12.256c-10.738-13.644-4.184-19.021-11.333-20.046       c-7.149-1.024-38.69,12.337-69.676,8.164c-30.985-4.174-40.4-9.221-42.36,2.266c-1.96,11.488,0.764,54.477,38.278,54.07       C896.059,1030.271,969.398,998.479,969.398,998.479z"/>
				</g>
				<path fill="#0E538C" d="M960.306,937.98c0,0,114.355-93,162.204-142.445c47.85-49.444,78.154-97.736,133.979-78.375      c55.825,19.361-14.354,123.179-65.394,163.779c-51.039,40.6-177.116,130.138-177.116,130.138S946.343,987.101,960.306,937.98z"/>
			</g>
		</g>
		<path fill="#FFBE55" d="M924.573,43.729c-13.191-34.924-52.197-52.542-87.121-39.35c-34.924,13.191-52.542,52.197-39.35,87.12l0,0    c3.161,8.368,7.806,15.738,13.519,21.933l-0.579,0.219l89.817,91.487c7.737,7.88,21.15,2.814,21.745-8.214l6.905-128.021    l-0.579,0.219C929.121,60.698,927.734,52.097,924.573,43.729L924.573,43.729z M873.333,99.371    c-17.653,6.668-37.369-2.237-44.036-19.89c-6.668-17.653,2.237-37.369,19.89-44.036c17.653-6.668,37.369,2.237,44.036,19.89    C899.891,72.987,890.985,92.703,873.333,99.371z"/>
		<path fill="#FFE3CA" d="M849.652,152.851c0.556-3.388,2.4-6.426,5.144-8.489c12.811-9.633,33.978-23.64,40.872-16.623    c7.739,7.878,38.92,32.684-0.147,64.203l-9.381,9.077l-42.187-13.435L849.652,152.851z"/>
	</g>
	<path fill="#FFBE55" d="M947.447,661.084c1.104-24.655-17.988-45.538-42.643-46.642s-45.538,17.988-46.642,42.643v0   c-0.265,5.907,0.633,11.597,2.486,16.851l-0.409-0.018l30.672,79.012c2.642,6.806,12.112,7.23,15.352,0.688l37.611-75.954   l-0.409-0.018C945.78,672.578,947.182,666.991,947.447,661.084L947.447,661.084z M901.8,681.504   c-12.462-0.558-22.113-11.113-21.555-23.576c0.558-12.462,11.113-22.113,23.576-21.555c12.462,0.558,22.113,11.113,21.555,23.576   C924.818,672.412,914.263,682.062,901.8,681.504z"/>
	<path opacity="0.85" fill="#FFBE55" d="M908.83,656.302c-7.235-23.596-32.229-36.858-55.825-29.623   c-23.596,7.235-36.858,32.229-29.623,55.825v0c1.734,5.653,4.489,10.711,7.998,15.039l-0.391,0.12l55.413,64.134   c4.773,5.524,13.836,2.745,14.692-4.505l9.935-84.172l-0.391,0.12C911.118,667.689,910.564,661.956,908.83,656.302L908.83,656.302z    M872.686,690.859c-11.927,3.657-24.56-3.047-28.217-14.973c-3.657-11.927,3.047-24.56,14.973-28.217   c11.927-3.657,24.56,3.046,28.217,14.973C891.316,674.568,884.612,687.202,872.686,690.859z"/>
	<path fill="#FCD2B1" d="M922.174,743.612l-7.484-3.214c-7.84-3.367-14.259-9.413-17.954-17.104   c-4.28-8.906-14.326-18.758-14.326-18.758c-12.053,4.735,10.116,22.432-5.51,26.235c-3.566,0.868-7.692-0.34-12.148,0.739   c-5.57,1.348-13.514-13.707-14.627-10.186c-7.964,25.182,19.061,41.958,30.097,43.39c14.533,1.885,45.046,11.022,45.046,11.022   L922.174,743.612z"/>
	<path fill="#FFBE55" d="M915.829,798.099c0,0-13.839-15.186-11.634-33.078c0.865-7.02,9.062-25.288,9.062-25.288   s163.356-41.635,177.69-42.198c0.023-1.067,0.077-2.091,0.139-3.189c3.116-42.606,26.732-95.252,33.056-124.387   c3.059-14.07,9.139-27.195,17.778-38.035c5.899-7.382,12.953-13.701,21.132-18.654c12.907-7.785,27.618-11.65,40.287-2.24   c4.757,3.515,8.184,8.347,10.087,13.658c2.154,5.888,2.428,12.466,0.739,18.54c-11.621,41.163-41.164,154.846-52.318,178.352   c-1.966,4.117-4.298,7.68-6.88,10.665c-0.781,1.097-1.671,2.14-2.685,3.276C1125.44,764.074,915.829,798.099,915.829,798.099z"/>
</g>
</svg>